<?xml version="1.0" encoding="UTF-8"?>
<svg width="255px" height="256px" viewBox="0 0 255 256" version="1.1" xmlns="http://www.w3.org/2000/svg" xmlns:xlink="http://www.w3.org/1999/xlink">
    <!-- Generator: Sketch 41.1 (35376) - http://www.bohemiancoding.com/sketch -->
    <title>donut girl logo</title>
    <desc>Created with Sketch.</desc>
    <defs></defs>
    <g id="Boober" stroke="none" stroke-width="1" fill="none" fill-rule="evenodd">
        <g id="donut-girl-logo" transform="translate(4.000000, 0.000000)">
            <path d="M8.52399445,112.8661 C8.52399445,112.8661 82.5948294,81.8473482 82.5948334,49 C82.5948374,16.1526518 82.5948297,221.153717 53.6331975,242.780054 C24.6715653,264.406391 -5.06308777,242.78006 2,197.536675 C9.06308777,152.293289 115.860268,74.8059111 115.860268,74.8059111 C115.860268,74.8059111 139.566255,58.7847868 156.262811,71.6659376 C172.959366,84.5470884 174.878472,173.84024 174.878472,173.84024 C174.878472,173.84024 212.484592,83.4104267 245.734951,71.6659371" id="Path-3-Copy" stroke="#000000" stroke-width="9" stroke-linecap="round" stroke-linejoin="round"></path>
            <path d="M79.3300736,17.4599991 C82.2515897,17.4599991 80.7810223,16.7939642 82.4917843,14.6918938 C83.7983984,13.0864134 94.9835686,12.2867174 94.9835686,10.0553761 C94.9835686,4.90251868 84.482931,0 79.3300736,0 C74.1772162,0 70,4.17721624 70,9.33007362 C70,14.482931 74.1772162,17.4599991 79.3300736,17.4599991 Z" id="Oval-Copy" fill="#000000"></path>
        </g>
    </g>
</svg>