<?xml version="1.0" encoding="UTF-8" standalone="no"?>
<svg width="36px" height="86px" viewBox="0 0 36 86" version="1.1" xmlns="http://www.w3.org/2000/svg" xmlns:xlink="http://www.w3.org/1999/xlink">
    <!-- Generator: Sketch Beta 41.1 (35375) - http://www.bohemiancoding.com/sketch -->
    <title>scroll</title>
    <desc>Created with Sketch Beta.</desc>
    <defs></defs>
    <g id="V3" stroke="none" stroke-width="1" fill="none" fill-rule="evenodd">
        <g id="scroll" fill="#FFFFFF">
            <g id="Group">
                <path d="M0,34 L0,52 C0,61.9 8.1,70 18,70 C27.9,70 36,61.9 36,52 L36,34 C36,24.1 27.9,16 18,16 C8.1,16 0,24.1 0,34 Z M18,20 C25.7,20 32,26.3 32,34 L32,52 C32,59.7 25.7,66 18,66 C10.3,66 4,59.7 4,52 L4,34 C4,26.3 10.3,20 18,20 Z" id="Shape"></path>
                <path d="M18,37 C19.1,37 20,36.1 20,35 L20,29 C20,27.9 19.1,27 18,27 C16.9,27 16,27.9 16,29 L16,35 C16,36.1 16.9,37 18,37 Z" id="Shape"></path>
                <path d="M16.6,85.4 C17,85.8 17.5,86 18,86 C18.5,86 19,85.8 19.4,85.4 L24.4,80.4 C25.2,79.6 25.2,78.4 24.4,77.6 C23.6,76.8 22.4,76.8 21.6,77.6 L18,81.2 L14.4,77.6 C13.6,76.8 12.4,76.8 11.6,77.6 C10.8,78.4 10.8,79.6 11.6,80.4 L16.6,85.4 Z" id="Shape"></path>
                <path d="M16.6,0.6 L11.6,5.6 C10.8,6.4 10.8,7.6 11.6,8.4 C12,8.8 12.5,9 13,9 C13.5,9 14,8.8 14.4,8.4 L18,4.8 L21.6,8.4 C22,8.8 22.5,9 23,9 C23.5,9 24,8.8 24.4,8.4 C25.2,7.6 25.2,6.4 24.4,5.6 L19.4,0.6 C18.6,-0.2 17.4,-0.2 16.6,0.6 Z" id="Shape"></path>
            </g>
        </g>
    </g>
</svg>